<svg width="767" height="264" viewBox="0 0 767 264" fill="none" xmlns="http://www.w3.org/2000/svg">
<path d="M0.225781 87H16.4258L47.5258 129.4L47.2258 87H63.4258V157H48.2258L16.1258 113.2L16.4258 157H0.225781V87ZM93.3344 105.4V135.5C93.3344 138.367 94.101 140.7 95.6344 142.5C97.2344 144.233 99.3344 145.1 101.934 145.1C103.668 145.1 105.234 144.767 106.634 144.1C108.101 143.367 109.401 142.267 110.534 140.8V105.4H126.734V157H110.534V148.6C108.534 151.6 106.134 153.9 103.334 155.5C100.601 157.033 97.5677 157.8 94.2344 157.8C89.2344 157.8 85.1344 156.167 81.9344 152.9C78.7344 149.567 77.1344 145.333 77.1344 140.2V105.4H93.3344ZM139.351 157V105.4H155.551V113.6C157.417 110.667 159.651 108.433 162.251 106.9C164.851 105.367 167.717 104.6 170.851 104.6C174.184 104.6 177.117 105.467 179.651 107.2C182.184 108.933 184.084 111.267 185.351 114.2C187.351 111.133 189.784 108.767 192.651 107.1C195.517 105.433 198.717 104.6 202.251 104.6C206.984 104.6 210.851 106.3 213.851 109.7C216.917 113.1 218.451 117.433 218.451 122.7V157H202.251V125.9C202.251 123.3 201.517 121.233 200.051 119.7C198.651 118.1 196.817 117.3 194.551 117.3C193.084 117.3 191.717 117.633 190.451 118.3C189.251 118.9 188.117 119.9 187.051 121.3V157H170.851V125.9C170.851 123.3 170.117 121.233 168.651 119.7C167.251 118.1 165.417 117.3 163.151 117.3C161.684 117.3 160.317 117.633 159.051 118.3C157.784 118.967 156.617 119.967 155.551 121.3V157H139.351ZM277.259 149.7C273.926 152.633 270.559 154.767 267.159 156.1C263.759 157.367 259.893 158 255.559 158C251.759 158 248.193 157.333 244.859 156C241.593 154.6 238.726 152.7 236.259 150.3C233.793 147.9 231.859 145.067 230.459 141.8C229.059 138.533 228.359 135.033 228.359 131.3C228.359 127.5 229.026 123.967 230.359 120.7C231.693 117.433 233.493 114.6 235.759 112.2C238.093 109.8 240.859 107.933 244.059 106.6C247.259 105.2 250.693 104.5 254.359 104.5C258.093 104.5 261.493 105.2 264.559 106.6C267.693 107.933 270.359 109.8 272.559 112.2C274.826 114.6 276.593 117.5 277.859 120.9C279.126 124.233 279.759 127.9 279.759 131.9V135.4H244.259C244.993 138.267 246.459 140.6 248.659 142.4C250.859 144.2 253.426 145.1 256.359 145.1C258.493 145.1 260.426 144.733 262.159 144C263.959 143.267 265.426 142.2 266.559 140.8L277.259 149.7ZM254.259 117.1C251.726 117.1 249.593 117.9 247.859 119.5C246.126 121.1 244.926 123.333 244.259 126.2H264.759C264.093 123.4 262.826 121.2 260.959 119.6C259.093 117.933 256.859 117.1 254.259 117.1ZM289.839 157V105.4H306.039V117.1C307.706 112.833 309.672 109.667 311.939 107.6C314.272 105.467 316.972 104.4 320.039 104.4C321.172 104.467 322.106 104.6 322.839 104.8C323.572 104.933 324.439 105.233 325.439 105.7V119.6C324.439 119.133 323.272 118.767 321.939 118.5C320.606 118.167 319.239 118 317.839 118C315.439 118 313.172 118.6 311.039 119.8C308.972 120.933 307.306 122.467 306.039 124.4V157H289.839ZM349.877 105.4V135.5C349.877 138.367 350.644 140.7 352.177 142.5C353.777 144.233 355.877 145.1 358.477 145.1C360.211 145.1 361.777 144.767 363.177 144.1C364.644 143.367 365.944 142.267 367.077 140.8V105.4H383.277V157H367.077V148.6C365.077 151.6 362.677 153.9 359.877 155.5C357.144 157.033 354.111 157.8 350.777 157.8C345.777 157.8 341.677 156.167 338.477 152.9C335.277 149.567 333.677 145.333 333.677 140.2V105.4H349.877ZM391.694 151.7L398.794 140.9C402.46 142.833 405.527 144.2 407.994 145C410.46 145.733 412.927 146.1 415.394 146.1C417.66 146.1 419.46 145.733 420.794 145C422.127 144.2 422.794 143.167 422.794 141.9C422.794 140.9 422.394 140.1 421.594 139.5C420.86 138.9 419.66 138.467 417.994 138.2L408.094 136.4C403.094 135.467 399.294 133.733 396.694 131.2C394.16 128.667 392.894 125.4 392.894 121.4C392.894 116.133 394.794 112 398.594 109C402.46 106 407.76 104.5 414.494 104.5C418.094 104.5 421.66 105 425.194 106C428.727 107 432.16 108.467 435.494 110.4L428.094 120.7C425.494 119.233 422.96 118.133 420.494 117.4C418.094 116.667 415.694 116.3 413.294 116.3C411.36 116.3 409.827 116.633 408.694 117.3C407.627 117.9 407.094 118.767 407.094 119.9C407.094 120.967 407.46 121.767 408.194 122.3C408.994 122.833 410.394 123.267 412.394 123.6L422.094 125.4C427.16 126.333 431.027 128.1 433.694 130.7C436.36 133.233 437.66 136.433 437.594 140.3C437.594 142.833 437.027 145.2 435.894 147.4C434.827 149.533 433.294 151.4 431.294 153C429.294 154.533 426.927 155.767 424.194 156.7C421.46 157.567 418.527 158 415.394 158C410.727 158 406.36 157.467 402.294 156.4C398.227 155.333 394.694 153.767 391.694 151.7ZM465.352 105.4H476.052V98.6C476.052 92.4667 477.819 87.7667 481.352 84.5C484.952 81.2333 490.052 79.6 496.652 79.6C498.052 79.6 499.552 79.7 501.152 79.9C502.819 80.1 504.186 80.3333 505.252 80.6V93.9C503.786 93.6333 502.586 93.4667 501.652 93.4C500.786 93.3333 499.919 93.3 499.052 93.3C496.786 93.3 495.086 93.7667 493.952 94.7C492.819 95.6333 492.252 97.0333 492.252 98.9V105.4H505.252V117.9H492.252V157H476.052V117.9H465.352V105.4ZM522.548 97.4C520.015 97.4 517.848 96.5333 516.048 94.8C514.315 93 513.448 90.8667 513.448 88.4C513.448 85.9333 514.348 83.8 516.148 82C517.948 80.2 520.082 79.3 522.548 79.3C525.015 79.3 527.148 80.2 528.948 82C530.815 83.8 531.748 85.9333 531.748 88.4C531.748 90.8667 530.848 93 529.048 94.8C527.315 96.5333 525.148 97.4 522.548 97.4ZM530.648 105.4V157H514.448V105.4H530.648ZM543.257 157V105.4H559.457V113.8C561.457 110.8 563.824 108.533 566.557 107C569.357 105.4 572.424 104.6 575.757 104.6C580.757 104.6 584.857 106.267 588.057 109.6C591.257 112.867 592.857 117.067 592.857 122.2V157H576.657V126.9C576.657 124.033 575.857 121.733 574.257 120C572.724 118.2 570.657 117.3 568.057 117.3C566.324 117.3 564.724 117.667 563.257 118.4C561.857 119.067 560.59 120.133 559.457 121.6V157H543.257ZM620.473 157.8C615.273 157.8 611.007 156.367 607.673 153.5C604.34 150.567 602.673 146.8 602.673 142.2C602.673 137.467 604.44 133.8 607.973 131.2C611.507 128.533 616.44 127.2 622.773 127.2C624.64 127.2 626.54 127.4 628.473 127.8C630.407 128.133 632.507 128.733 634.773 129.6V125.4C634.773 122.933 633.907 121.067 632.173 119.8C630.507 118.533 627.973 117.9 624.573 117.9C622.64 117.9 620.473 118.2 618.073 118.8C615.74 119.333 613.073 120.233 610.073 121.5L604.473 110.2C608.673 108.333 612.707 106.933 616.573 106C620.507 105.067 624.373 104.6 628.173 104.6C635.307 104.6 640.84 106.3 644.773 109.7C648.773 113.1 650.773 117.867 650.773 124V157H634.773V152.5C632.507 154.367 630.24 155.733 627.973 156.6C625.707 157.4 623.207 157.8 620.473 157.8ZM617.573 141.9C617.573 143.567 618.273 144.867 619.673 145.8C621.073 146.667 623.007 147.1 625.473 147.1C627.14 147.1 628.74 146.9 630.273 146.5C631.873 146.033 633.373 145.367 634.773 144.5V137.9C633.307 137.567 631.807 137.3 630.273 137.1C628.807 136.9 627.34 136.8 625.873 136.8C623.207 136.8 621.14 137.233 619.673 138.1C618.273 138.967 617.573 140.233 617.573 141.9ZM662.984 157V105.4H679.184V113.8C681.184 110.8 683.55 108.533 686.284 107C689.084 105.4 692.15 104.6 695.484 104.6C700.484 104.6 704.584 106.267 707.784 109.6C710.984 112.867 712.584 117.067 712.584 122.2V157H696.384V126.9C696.384 124.033 695.584 121.733 693.984 120C692.45 118.2 690.384 117.3 687.784 117.3C686.05 117.3 684.45 117.667 682.984 118.4C681.584 119.067 680.317 120.133 679.184 121.6V157H662.984ZM720.6 151.7L727.7 140.9C731.367 142.833 734.433 144.2 736.9 145C739.367 145.733 741.833 146.1 744.3 146.1C746.567 146.1 748.367 145.733 749.7 145C751.033 144.2 751.7 143.167 751.7 141.9C751.7 140.9 751.3 140.1 750.5 139.5C749.767 138.9 748.567 138.467 746.9 138.2L737 136.4C732 135.467 728.2 133.733 725.6 131.2C723.067 128.667 721.8 125.4 721.8 121.4C721.8 116.133 723.7 112 727.5 109C731.367 106 736.667 104.5 743.4 104.5C747 104.5 750.567 105 754.1 106C757.633 107 761.067 108.467 764.4 110.4L757 120.7C754.4 119.233 751.867 118.133 749.4 117.4C747 116.667 744.6 116.3 742.2 116.3C740.267 116.3 738.733 116.633 737.6 117.3C736.533 117.9 736 118.767 736 119.9C736 120.967 736.367 121.767 737.1 122.3C737.9 122.833 739.3 123.267 741.3 123.6L751 125.4C756.067 126.333 759.933 128.1 762.6 130.7C765.267 133.233 766.567 136.433 766.5 140.3C766.5 142.833 765.933 145.2 764.8 147.4C763.733 149.533 762.2 151.4 760.2 153C758.2 154.533 755.833 155.767 753.1 156.7C750.367 157.567 747.433 158 744.3 158C739.633 158 735.267 157.467 731.2 156.4C727.133 155.333 723.6 153.767 720.6 151.7Z" fill="black"/>
<line y1="-4" x2="450" y2="-4" transform="matrix(-0.999999 -0.00167977 0.00292682 -0.999996 606 255.939)" stroke="black" stroke-width="8"/>
<path d="M602 187.758L602 262" stroke="black" stroke-width="8"/>
<line x1="160" y1="187" x2="160" y2="261.242" stroke="black" stroke-width="8"/>
<line y1="-4" x2="450" y2="-4" transform="matrix(0.999999 0.00167977 -0.00292682 0.999996 156 8.06061)" stroke="black" stroke-width="8"/>
<path d="M160 76.2424L160 2" stroke="black" stroke-width="8"/>
<line x1="602" y1="77" x2="602" y2="2.75757" stroke="black" stroke-width="8"/>
</svg>
