<svg width="838" height="359" viewBox="0 0 838 359" fill="none" xmlns="http://www.w3.org/2000/svg">
<rect width="838" height="359" fill="#1A2647"/>
<path d="M38.2258 134H54.4258L85.5258 176.4L85.2258 134H101.426V204H86.2258L54.1258 160.2L54.4258 204H38.2258V134ZM131.334 152.4V182.5C131.334 185.367 132.101 187.7 133.634 189.5C135.234 191.233 137.334 192.1 139.934 192.1C141.668 192.1 143.234 191.767 144.634 191.1C146.101 190.367 147.401 189.267 148.534 187.8V152.4H164.734V204H148.534V195.6C146.534 198.6 144.134 200.9 141.334 202.5C138.601 204.033 135.568 204.8 132.234 204.8C127.234 204.8 123.134 203.167 119.934 199.9C116.734 196.567 115.134 192.333 115.134 187.2V152.4H131.334ZM177.351 204V152.4H193.551V160.6C195.417 157.667 197.651 155.433 200.251 153.9C202.851 152.367 205.717 151.6 208.851 151.6C212.184 151.6 215.117 152.467 217.651 154.2C220.184 155.933 222.084 158.267 223.351 161.2C225.351 158.133 227.784 155.767 230.651 154.1C233.517 152.433 236.717 151.6 240.251 151.6C244.984 151.6 248.851 153.3 251.851 156.7C254.917 160.1 256.451 164.433 256.451 169.7V204H240.251V172.9C240.251 170.3 239.517 168.233 238.051 166.7C236.651 165.1 234.817 164.3 232.551 164.3C231.084 164.3 229.717 164.633 228.451 165.3C227.251 165.9 226.117 166.9 225.051 168.3V204H208.851V172.9C208.851 170.3 208.117 168.233 206.651 166.7C205.251 165.1 203.417 164.3 201.151 164.3C199.684 164.3 198.317 164.633 197.051 165.3C195.784 165.967 194.617 166.967 193.551 168.3V204H177.351ZM315.259 196.7C311.926 199.633 308.559 201.767 305.159 203.1C301.759 204.367 297.893 205 293.559 205C289.759 205 286.193 204.333 282.859 203C279.593 201.6 276.726 199.7 274.259 197.3C271.793 194.9 269.859 192.067 268.459 188.8C267.059 185.533 266.359 182.033 266.359 178.3C266.359 174.5 267.026 170.967 268.359 167.7C269.693 164.433 271.493 161.6 273.759 159.2C276.093 156.8 278.859 154.933 282.059 153.6C285.259 152.2 288.693 151.5 292.359 151.5C296.093 151.5 299.493 152.2 302.559 153.6C305.693 154.933 308.359 156.8 310.559 159.2C312.826 161.6 314.593 164.5 315.859 167.9C317.126 171.233 317.759 174.9 317.759 178.9V182.4H282.259C282.993 185.267 284.459 187.6 286.659 189.4C288.859 191.2 291.426 192.1 294.359 192.1C296.493 192.1 298.426 191.733 300.159 191C301.959 190.267 303.426 189.2 304.559 187.8L315.259 196.7ZM292.259 164.1C289.726 164.1 287.593 164.9 285.859 166.5C284.126 168.1 282.926 170.333 282.259 173.2H302.759C302.093 170.4 300.826 168.2 298.959 166.6C297.093 164.933 294.859 164.1 292.259 164.1ZM327.839 204V152.4H344.039V164.1C345.706 159.833 347.672 156.667 349.939 154.6C352.272 152.467 354.972 151.4 358.039 151.4C359.172 151.467 360.106 151.6 360.839 151.8C361.572 151.933 362.439 152.233 363.439 152.7V166.6C362.439 166.133 361.272 165.767 359.939 165.5C358.606 165.167 357.239 165 355.839 165C353.439 165 351.172 165.6 349.039 166.8C346.972 167.933 345.306 169.467 344.039 171.4V204H327.839ZM387.877 152.4V182.5C387.877 185.367 388.644 187.7 390.177 189.5C391.777 191.233 393.877 192.1 396.477 192.1C398.211 192.1 399.777 191.767 401.177 191.1C402.644 190.367 403.944 189.267 405.077 187.8V152.4H421.277V204H405.077V195.6C403.077 198.6 400.677 200.9 397.877 202.5C395.144 204.033 392.111 204.8 388.777 204.8C383.777 204.8 379.677 203.167 376.477 199.9C373.277 196.567 371.677 192.333 371.677 187.2V152.4H387.877ZM429.694 198.7L436.794 187.9C440.46 189.833 443.527 191.2 445.994 192C448.46 192.733 450.927 193.1 453.394 193.1C455.66 193.1 457.46 192.733 458.794 192C460.127 191.2 460.794 190.167 460.794 188.9C460.794 187.9 460.394 187.1 459.594 186.5C458.86 185.9 457.66 185.467 455.994 185.2L446.094 183.4C441.094 182.467 437.294 180.733 434.694 178.2C432.16 175.667 430.894 172.4 430.894 168.4C430.894 163.133 432.794 159 436.594 156C440.46 153 445.76 151.5 452.494 151.5C456.094 151.5 459.66 152 463.194 153C466.727 154 470.16 155.467 473.494 157.4L466.094 167.7C463.494 166.233 460.96 165.133 458.494 164.4C456.094 163.667 453.694 163.3 451.294 163.3C449.36 163.3 447.827 163.633 446.694 164.3C445.627 164.9 445.094 165.767 445.094 166.9C445.094 167.967 445.46 168.767 446.194 169.3C446.994 169.833 448.394 170.267 450.394 170.6L460.094 172.4C465.16 173.333 469.027 175.1 471.694 177.7C474.36 180.233 475.66 183.433 475.594 187.3C475.594 189.833 475.027 192.2 473.894 194.4C472.827 196.533 471.294 198.4 469.294 200C467.294 201.533 464.927 202.767 462.194 203.7C459.46 204.567 456.527 205 453.394 205C448.727 205 444.36 204.467 440.294 203.4C436.227 202.333 432.694 200.767 429.694 198.7ZM503.352 152.4H514.052V145.6C514.052 139.467 515.819 134.767 519.352 131.5C522.952 128.233 528.052 126.6 534.652 126.6C536.052 126.6 537.552 126.7 539.152 126.9C540.819 127.1 542.186 127.333 543.252 127.6V140.9C541.786 140.633 540.586 140.467 539.652 140.4C538.786 140.333 537.919 140.3 537.052 140.3C534.786 140.3 533.086 140.767 531.952 141.7C530.819 142.633 530.252 144.033 530.252 145.9V152.4H543.252V164.9H530.252V204H514.052V164.9H503.352V152.4ZM560.548 144.4C558.015 144.4 555.848 143.533 554.048 141.8C552.315 140 551.448 137.867 551.448 135.4C551.448 132.933 552.348 130.8 554.148 129C555.948 127.2 558.082 126.3 560.548 126.3C563.015 126.3 565.148 127.2 566.948 129C568.815 130.8 569.748 132.933 569.748 135.4C569.748 137.867 568.848 140 567.048 141.8C565.315 143.533 563.148 144.4 560.548 144.4ZM568.648 152.4V204H552.448V152.4H568.648ZM581.257 204V152.4H597.457V160.8C599.457 157.8 601.824 155.533 604.557 154C607.357 152.4 610.424 151.6 613.757 151.6C618.757 151.6 622.857 153.267 626.057 156.6C629.257 159.867 630.857 164.067 630.857 169.2V204H614.657V173.9C614.657 171.033 613.857 168.733 612.257 167C610.724 165.2 608.657 164.3 606.057 164.3C604.324 164.3 602.724 164.667 601.257 165.4C599.857 166.067 598.59 167.133 597.457 168.6V204H581.257ZM658.473 204.8C653.273 204.8 649.007 203.367 645.673 200.5C642.34 197.567 640.673 193.8 640.673 189.2C640.673 184.467 642.44 180.8 645.973 178.2C649.507 175.533 654.44 174.2 660.773 174.2C662.64 174.2 664.54 174.4 666.473 174.8C668.407 175.133 670.507 175.733 672.773 176.6V172.4C672.773 169.933 671.907 168.067 670.173 166.8C668.507 165.533 665.973 164.9 662.573 164.9C660.64 164.9 658.473 165.2 656.073 165.8C653.74 166.333 651.073 167.233 648.073 168.5L642.473 157.2C646.673 155.333 650.707 153.933 654.573 153C658.507 152.067 662.373 151.6 666.173 151.6C673.307 151.6 678.84 153.3 682.773 156.7C686.773 160.1 688.773 164.867 688.773 171V204H672.773V199.5C670.507 201.367 668.24 202.733 665.973 203.6C663.707 204.4 661.207 204.8 658.473 204.8ZM655.573 188.9C655.573 190.567 656.273 191.867 657.673 192.8C659.073 193.667 661.007 194.1 663.473 194.1C665.14 194.1 666.74 193.9 668.273 193.5C669.873 193.033 671.373 192.367 672.773 191.5V184.9C671.307 184.567 669.807 184.3 668.273 184.1C666.807 183.9 665.34 183.8 663.873 183.8C661.207 183.8 659.14 184.233 657.673 185.1C656.273 185.967 655.573 187.233 655.573 188.9ZM700.984 204V152.4H717.184V160.8C719.184 157.8 721.55 155.533 724.284 154C727.084 152.4 730.15 151.6 733.484 151.6C738.484 151.6 742.584 153.267 745.784 156.6C748.984 159.867 750.584 164.067 750.584 169.2V204H734.384V173.9C734.384 171.033 733.584 168.733 731.984 167C730.45 165.2 728.384 164.3 725.784 164.3C724.05 164.3 722.45 164.667 720.984 165.4C719.584 166.067 718.317 167.133 717.184 168.6V204H700.984ZM758.6 198.7L765.7 187.9C769.367 189.833 772.433 191.2 774.9 192C777.367 192.733 779.833 193.1 782.3 193.1C784.567 193.1 786.367 192.733 787.7 192C789.033 191.2 789.7 190.167 789.7 188.9C789.7 187.9 789.3 187.1 788.5 186.5C787.767 185.9 786.567 185.467 784.9 185.2L775 183.4C770 182.467 766.2 180.733 763.6 178.2C761.067 175.667 759.8 172.4 759.8 168.4C759.8 163.133 761.7 159 765.5 156C769.367 153 774.667 151.5 781.4 151.5C785 151.5 788.567 152 792.1 153C795.633 154 799.067 155.467 802.4 157.4L795 167.7C792.4 166.233 789.867 165.133 787.4 164.4C785 163.667 782.6 163.3 780.2 163.3C778.267 163.3 776.733 163.633 775.6 164.3C774.533 164.9 774 165.767 774 166.9C774 167.967 774.367 168.767 775.1 169.3C775.9 169.833 777.3 170.267 779.3 170.6L789 172.4C794.067 173.333 797.933 175.1 800.6 177.7C803.267 180.233 804.567 183.433 804.5 187.3C804.5 189.833 803.933 192.2 802.8 194.4C801.733 196.533 800.2 198.4 798.2 200C796.2 201.533 793.833 202.767 791.1 203.7C788.367 204.567 785.433 205 782.3 205C777.633 205 773.267 204.467 769.2 203.4C765.133 202.333 761.6 200.767 758.6 198.7Z" fill="#F0BB00"/>
<line y1="-4" x2="450" y2="-4" transform="matrix(-0.999999 -0.00167977 0.00292682 -0.999996 644 302.939)" stroke="#F0BB00" stroke-width="8"/>
<path d="M640 234.758L640 309" stroke="#F0BB00" stroke-width="8"/>
<line x1="198" y1="234" x2="198" y2="308.242" stroke="#F0BB00" stroke-width="8"/>
<line y1="-4" x2="450" y2="-4" transform="matrix(0.999999 0.00167977 -0.00292682 0.999996 194 55.0606)" stroke="#F0BB00" stroke-width="8"/>
<path d="M198 123.242L198 49" stroke="#F0BB00" stroke-width="8"/>
<line x1="640" y1="124" x2="640" y2="49.7576" stroke="#F0BB00" stroke-width="8"/>
</svg>
